<?xml version="1.0" encoding="UTF-8"?><svg id="Layer_1" xmlns="http://www.w3.org/2000/svg" viewBox="0 0 352.06 375.93"><defs><style>.cls-1{fill:#f6f6f6;}.cls-2{fill:#eebd1c;}.cls-3{fill:#fbe000;}.cls-4{fill:#de4a2f;}.cls-5{fill:#080703;}.cls-6{fill:#954421;}</style></defs><path class="cls-5" d="M93.4,117.18c-10.92-.36-21.54-1.45-32.03-3.59-17.42-3.56-33.93-9.54-49.19-18.76-3.65-2.21-7.02-4.81-9.7-8.18-4.04-5.09-3.21-7.68,3.06-9.17,9.65-2.29,19.47-2.38,29.3-1.97,27.34,1.16,53.45,8.26,79.28,16.63,1.99,.65,3.64,.67,5.62-.14,13.02-5.27,26.37-9.33,40.56-9.78,12.34-.39,24.18,2.11,35.66,6.41,1.92,.72,2.55,.23,3.45-1.32,12.42-21.51,26.95-41.38,45.5-58.07,11.47-10.32,23.55-19.81,37.44-26.76,2.16-1.08,4.39-2.05,6.81-2.39,2.68-.37,3.52,.34,3.56,3.04,.1,6.17-1.63,12.02-3.39,17.84-5.35,17.6-14.44,33.23-25.32,47.92-11.36,15.35-23.81,29.75-37.24,43.32-1.19,1.2-1.3,2.05-.6,3.53,3.17,6.75,5.56,13.78,6.78,21.65,2.99-3.19,5.68-6.04,8.36-8.9,12.12-12.96,24.25-25.9,36.33-38.9,.98-1.05,1.62-1.19,2.87-.4,23.87,15.04,47.27,30.78,69.8,47.79,.52,.39,1.01,.82,1.75,1.42-21.56,12.43-40.69,27.78-59.01,44.45,16.11,7.39,32.63,13.56,46.83,24.23,.57,.43,1.12,.88,1.87,1.48-15.55,10.26-31.61,19.3-47.93,28.43,11.91,6.24,23.46,12.63,34.55,20.15-5.96,3.42-11.8,6.7-17.57,10.1-18.57,10.94-36.41,22.99-54.22,35.1-.86,.58-1.26,1.2-1.36,2.27-1.15,11.27-5.12,21.31-13.24,29.45-.94,.94-.96,1.76-.62,2.92,2.75,9.2,5.27,18.46,5.56,28.15,.06,1.98,0,3.96-.5,5.9-1.06,4.09-3.64,5.63-7.77,4.58-3.12-.8-5.74-2.57-8.18-4.57-7.27-5.96-12.95-13.33-18.4-20.89-1.37-1.9-2.65-3.87-3.97-5.81-.41-.6-.74-1.16-1.67-1.18-9.36-.19-18.48-1.98-27.52-4.23-9.4-2.35-18.71-1.93-27.93,.96-.21,.07-.43,.17-.64,.16-5.64-.16-9.75,2.74-13.94,6.18-9.09,7.48-19.01,13.71-30.44,17.11-4.97,1.48-10.04,2.1-15.2,1.04-3.65-.75-4.8-2.47-4.16-6.11,.65-3.71,2.55-6.84,4.6-9.88,3.17-4.69,6.85-8.98,10.86-12.96,1.06-1.05,1.04-1.65,.12-2.82-10.22-12.97-14.24-27.65-12.22-44.06,1.33-10.79,3.68-21.34,6.72-31.77,1.49-5.09,1.46-10.43,2.21-15.64,1.26-8.78,2.82-17.5,4.75-26.15,.33-1.46-.13-2.06-1.2-2.81-7.47-5.26-14.12-11.38-19.79-18.6-7.88-10.03-9.25-20.89-4.77-32.67,.6-1.57,1.07-3.23,1.9-4.67,2.34-4.06,3.35-8.44,4.12-13.04,1.92-11.53,2.76-13.34,9.51-26.03Zm176.77,152.52c-3.49,3.11-6.77,6.52-10.53,9.25-3.59,2.61-5.39,5.37-4.57,9.99,.55,3.08,.1,6.34,.1,9.99,9.18-6.2,17.88-12.07,26.58-17.95,8.36-5.27,16.71-10.57,25.1-15.81,4.51-2.82,9.08-5.54,13.85-8.45-10.56-8-22.39-13.35-33.99-19.6,16.21-9.93,32.17-19.7,48.32-29.59-.89-.48-1.53-.83-2.17-1.17-14.36-7.65-29.14-14.39-44.19-20.55-2.23-.91-2.23-.92-.47-2.62,16.9-16.34,34.94-31.29,54.76-43.99,1.55-.99,1.27-1.46,.04-2.37-2.54-1.87-4.99-3.85-7.48-5.78-17.23-13.34-35.47-25.2-54.15-36.38-.88-.53-1.55-1.04-2.6,.04-14.78,15.18-29.61,30.3-44.45,45.43-.67,.68-.9,1.32-.74,2.33,.58,3.62,.78,7.29,.64,10.96-.53,13.42-2.41,26.7-4.29,39.97-.42,2.99-.48,2.98,2.42,3.8,13.31,3.76,26.59,7.63,39.63,12.3,1.95,.7,1.93,1.19,.62,2.66-7.49,8.35-14.89,16.77-22.3,25.19-.61,.69-1.43,1.26-1.68,2.32,.84,.33,1.64,.65,2.45,.96,10.61,4.01,21.27,7.92,31.36,13.18,1.74,.91,1.87,1.43,.49,2.82-4.3,4.29-8.49,8.71-12.72,13.07Zm-10.32-245.97c-.92,.04-1.3,.53-1.76,.88-8.07,6.14-15.66,12.83-22.5,20.31-11.07,12.1-20.27,25.62-29.3,39.26-3.63,5.48-7.1,11.07-10.76,16.79-.93-2.3-.71-4.37,.31-6.28,.76-1.43,.24-1.88-1.05-2.26-2.17-.64-4.3-1.46-6.48-2.08-10.66-3.02-21.48-4.64-32.58-3.39-14.76,1.67-28.74,6.13-42.35,11.92-.46,.2-.94,.77-1.57,.31q1.2-3.33-2.27-4.45c-18.31-5.85-36.91-10.47-56.03-12.77-5.72-.69-11.44-1.4-17.36-1.69,.19,.8,.31,1.44,.49,2.07,2.52,8.91,6.93,16.74,13.34,23.45,1,1.05,2.11,1.69,3.49,2.1,9.69,2.86,19.69,3.71,29.66,4.87,6.56,.76,12.69,.05,18.55-2.97,.06-.03,.21,.1,.38,.18-.23,.31-.43,.61-.66,.89-6.7,8.22-11.18,17.51-13.29,27.9-1.3,6.42-1.93,13.03-5.46,18.8-.11,.18-.14,.42-.24,.61-.52,1.1-.22,1.75,.81,2.51,8.94,6.67,9.91,19.02,2.03,26.9-1.38,1.38-1.09,1.99,0,3.23,8.95,10.15,18.71,19.43,29.51,27.6,.62,.47,1.63,.76,1.43,2.05-2.45-1.21-4.83-2.29-7.11-3.54-1.26-.69-1.7-.43-2.1,.9-2.27,7.68-3.94,15.47-4.85,23.42-1.66,14.61,.67,28.77,4.57,42.79,1.09,3.92,3.37,7.67,2.05,12.06-.24,.8,.02,1.91,.98,2.23,.92,.3,1.32-.71,1.91-1.22,.37-.32,.5-.91,1.23-.99,.44,.86,.84,1.79,1.36,2.64,1.12,1.84,2.05,1.82,3.17-.07,.57-.97,1-2.02,1.5-3.05,.93,.91,1.66,1.74,2.51,2.42,1.55,1.24,2.33,.97,3.19-.83,.43-.9,.29-2.02,1.1-2.89,.33,.35,.61,.69,.93,.98,1.06,.96,1.93,2.82,3.43,2.34,1.7-.55,1.3-2.59,1.32-4.09,0-1.13,.24-1.36,1.36-1.01,1.34,.42,1.95-.28,1.7-1.64-.13-.71-.29-1.46-.62-2.1-1.73-3.38-1.78-6.87-.95-10.49,1.7-7.34,2.21-14.75,1.52-22.28-.53-5.83-.83-11.67-1.23-17.51,2.16,3.35,3.33,7.02,4.19,10.8,1.9,8.35,.73,16.63-.61,24.9-.89,5.54-2.51,11.07,.24,16.55,.16,.31,.17,.71,.19,1.08,.06,1.43-.51,2.6-1.99,2.65-1.4,.05-1.45,.85-1.6,1.8-.13,.79-.3,1.59-.53,2.35-.83,2.7-2.29,3.37-4.55,1.64-1.69-1.29-2.47-.83-3.57,.58-1.08,1.39-2.59,2.26-4.07,.6-1.04-1.16-1.56-.9-2.52,.04-1.84,1.78-3.37,1.9-4.39,.06-1.18-2.14-2.24-1.61-3.89-.77-2.3,1.17-3.37,.51-3.79-2.05-.13-.79-.24-1.63-.13-2.41,.46-3.29-.31-6.39-1.31-9.47-.34-1.04-.59-2.12-.87-3.18-1.95-7.39-3.29-14.91-4.59-22.48-.65,.27-.61,.76-.71,1.16-1.55,6.26-2.84,12.58-3.8,18.95-1.35,9.01-2.39,18.05-1.04,27.15,2.56,17.24,15.32,28.66,32.61,29.52,8.78,.44,17.4-.76,26.03-2.03,6-.88,11.96-2.17,18.12-1.18,9.33,1.5,18.66,3.03,28.09,3.83,8.49,.72,17.03,1.44,25.38-.73,11.5-2.99,20.57-9.19,24.99-20.75,3.72-9.75,3.62-19.95,3.26-30.17-.04-1.14-.68-1.06-1.46-1.03-3.38,.15-6.76,.09-10.08-.54-1.68-.32-3.81-.43-4.33-2.44-.5-1.97,1.37-2.94,2.66-3.93,3.33-2.57,6.33-5.44,8.95-8.73,.72-.9,.91-1.73,.61-2.81-1.94-7.06-4.05-14.07-6.65-20.93-.52-1.38-1.24-1.46-2.48-1.29-3.34,.48-6.7,.78-10.08,.28-3.9-.59-4.65-2.31-2.32-5.48,2.32-3.16,5.25-5.72,8.29-8.15,1.04-.83,1.23-1.46,.6-2.7-1.66-3.26-3.21-6.58-4.66-9.94-2.89-6.75-5.56-13.57-5.5-21.1,.06-7.79,1.11-15.49,1.96-23.21,1.19-10.85,2.79-21.68,1.55-32.65-.96-8.43-3.19-16.52-6.45-24.34-.46-1.11-.89-1.51-2.03-.76-1.07,.7-2.27,1.2-3.76,1.97,.51-3.35,2.38-5.43,4.2-7.48,7.41-8.32,14.93-16.55,22.33-24.89,5.06-5.7,10.08-11.46,13.67-18.27,1.91-3.62,3.69-7.25,4.24-11.45,.99-7.64,.68-15.21-.27-22.8-.44-3.54-.94-7.07-1.4-10.6Zm-5.41,255.89c.18,0,.28,.03,.32,0,7.93-7.39,15.85-14.8,23.8-22.17,.93-.86,.56-1.25-.24-1.8-1.52-1.03-3.11-1.93-4.82-2.59-7.16-2.76-14.27-5.7-21.53-8.18-3.02-1.03-5.01-2.61-6.28-5.46-.49-1.09-.52-1.73,.33-2.66,4.13-4.56,8.18-9.2,12.25-13.81,3.11-3.53,6.22-7.06,9.48-10.76-12.67-4.2-25.01-8.28-37.55-12.44-.04,2.99,.44,5.7,1.18,8.37,2.57,9.26,6.5,18.01,10.03,26.92,4.01,10.13,8.44,20.12,10.59,30.88,.91,4.56,1.64,9.16,2.44,13.71Zm-11.91,93.15c1.45-.7,1.51-1.73,1.65-2.61,.24-1.44,.43-2.91,.45-4.37,.1-10.07-2.65-19.52-6.36-28.76-.47-1.17-1-.92-1.81-.46-6.83,3.88-14.33,5.44-22.02,6.25-1.72,.18-2.14,.48-1.24,2.18,4.81,9.09,11.08,17.06,18.33,24.29,1.03,1.02,2.26,1.87,3.47,2.67,.69,.46,1.45,1.03,2.56,.53-1.59-3.18-3.42-6.16-5.47-9.01-1.28-1.79-2.58-3.57-3.38-5.63-.29-.74-.71-1.65,.1-2.21,.87-.61,1.67-.02,2.31,.66,1.94,2.06,3.22,4.52,4.34,7.08,1.21,2.75,2.4,5.5,3.67,8.22,.24,.52,.46,1.46,1.3,1.2,.7-.22,.71-1.06,.7-1.71-.09-3.69-.44-7.31-2.58-10.51-.93-1.4-1.89-2.8-2.45-4.41-.22-.64-.36-1.33,.28-1.81,.51-.39,1.13-.33,1.68-.07,.83,.4,1.33,1.14,1.74,1.92,1.35,2.56,2.14,5.29,2.3,8.18,.15,2.69,.29,5.38,.44,8.36Zm-152.52-14.19c.99-.14,1.14-.98,1.45-1.57,1.43-2.71,3.46-4.91,5.78-6.84,.86-.71,1.97-1.89,3.01-.65,1.05,1.26-.02,2.24-1.14,3-2.45,1.66-4.48,3.77-6.23,6.14-.47,.64-1.19,1.28-.79,2.31,1.16-.32,1.71-1.24,2.45-1.92,3.01-2.79,5.93-5.69,9.57-7.68,.87-.48,2.08-1.41,2.93-.14,.87,1.3-.35,2.13-1.2,2.9-.43,.39-.98,.64-1.46,.97-2.47,1.7-4.95,3.39-7.39,5.14-.66,.47-1.4,.96-1.79,2.55,16.21-3.46,29.61-11.3,42.62-21.36-3.9,0-7.12,.08-10.32-.02-6.75-.19-13.29-1.22-18.93-5.32-1.08-.79-1.55-.06-2.21,.47-6.43,5.19-11.03,11.89-15.39,18.77-.6,.94-1.25,1.97-.95,3.26Zm-11.63-184.39c-.07,3.46,.93,6.65,2.42,9.72,1.63,3.37,1.78,3.37,4.01,.29,5.29-7.29,4.23-15.4-2.6-20.35-1.1-.79-1.67-.88-2.11,.64-.92,3.18-1.67,6.37-1.71,9.7Zm170.89,97.84c-2.84,3.62-5.95,6.3-9.22,8.83-1.39,1.07-.72,2.08,.71,2.5,3.41,.99,6.79,.22,10.16-.29,.79-.12,.86-.62,.7-1.29-.76-3.08-1.49-6.17-2.35-9.75Zm-16.85-28.62c2.39-.2,4.82-.69,7.23-1.28,.94-.23,1.27-.55,.82-1.49-.95-1.98-1.87-3.97-2.76-5.97-.36-.82-.73-.94-1.45-.34-2.04,1.68-3.99,3.45-5.67,5.49-.66,.81-1.68,1.74-1.08,2.9,.56,1.09,1.84,.55,2.92,.7Z"/><path class="cls-3" d="M259.84,23.74c.47,3.53,.96,7.06,1.4,10.6,.94,7.59,1.25,15.16,.27,22.8-.54,4.21-2.32,7.83-4.24,11.45-3.59,6.8-8.62,12.56-13.67,18.27-7.39,8.34-14.91,16.57-22.33,24.89-1.82,2.04-3.68,4.13-4.2,7.48,1.49-.77,2.69-1.27,3.76-1.97,1.15-.75,1.57-.35,2.03,.76,3.26,7.82,5.49,15.91,6.45,24.34,1.25,10.97-.36,21.8-1.55,32.65-.85,7.72-1.9,15.42-1.96,23.21-.06,7.53,2.6,14.35,5.5,21.1,1.44,3.36,2.99,6.69,4.66,9.94,.63,1.24,.44,1.87-.6,2.7-3.03,2.43-5.97,4.99-8.29,8.15-2.33,3.18-1.58,4.9,2.32,5.48,3.37,.51,6.73,.21,10.08-.28,1.24-.18,1.95-.1,2.48,1.29,2.59,6.86,4.71,13.86,6.65,20.93,.3,1.08,.11,1.91-.61,2.81-2.62,3.29-5.63,6.16-8.95,8.73-1.29,.99-3.16,1.96-2.66,3.93,.51,2.02,2.65,2.13,4.33,2.44,3.32,.63,6.7,.69,10.08,.54,.78-.03,1.42-.11,1.46,1.03,.36,10.22,.46,20.43-3.26,30.17-4.41,11.56-13.49,17.77-24.99,20.75-8.35,2.17-16.89,1.45-25.38,.73-9.43-.8-18.76-2.33-28.09-3.83-6.16-.99-12.12,.3-18.12,1.18-8.63,1.27-17.25,2.47-26.03,2.03-17.3-.86-30.05-12.28-32.61-29.52-1.35-9.09-.3-18.14,1.04-27.15,.95-6.38,2.24-12.69,3.8-18.95,.1-.41,.06-.9,.71-1.16,1.29,7.57,2.63,15.09,4.59,22.48,.28,1.06,.53,2.13,.87,3.18,1,3.08,1.77,6.18,1.31,9.47-.11,.78,0,1.62,.13,2.41,.42,2.55,1.49,3.22,3.79,2.05,1.65-.84,2.71-1.37,3.89,.77,1.02,1.84,2.55,1.72,4.39-.06,.96-.93,1.49-1.2,2.52-.04,1.48,1.66,2.99,.79,4.07-.6,1.1-1.41,1.88-1.87,3.57-.58,2.26,1.72,3.72,1.05,4.55-1.64,.24-.77,.41-1.56,.53-2.35,.15-.96,.2-1.75,1.6-1.8,1.48-.05,2.06-1.22,1.99-2.65-.02-.36-.03-.76-.19-1.08-2.74-5.48-1.13-11.01-.24-16.55,1.33-8.27,2.51-16.55,.61-24.9-.86-3.78-2.03-7.45-4.19-10.8,.4,5.84,.7,11.69,1.23,17.51,.69,7.52,.18,14.94-1.52,22.28-.84,3.62-.78,7.11,.95,10.49,.33,.64,.48,1.38,.62,2.1,.26,1.36-.36,2.06-1.7,1.64-1.11-.34-1.35-.12-1.36,1.01-.01,1.49,.38,3.54-1.32,4.09-1.5,.48-2.37-1.38-3.43-2.34-.32-.29-.6-.62-.93-.98-.8,.88-.67,1.99-1.1,2.89-.86,1.8-1.64,2.07-3.19,.83-.85-.68-1.58-1.51-2.51-2.42-.5,1.04-.93,2.09-1.5,3.05-1.11,1.89-2.04,1.91-3.17,.07-.52-.85-.92-1.78-1.36-2.64-.74,.08-.86,.67-1.23,.99-.59,.5-1,1.52-1.91,1.22-.96-.32-1.23-1.43-.98-2.23,1.32-4.38-.96-8.13-2.05-12.06-3.9-14.02-6.23-28.18-4.57-42.79,.91-7.96,2.58-15.75,4.85-23.42,.39-1.33,.84-1.59,2.1-.9,2.29,1.25,4.66,2.34,7.11,3.54,.21-1.29-.81-1.58-1.43-2.05-10.79-8.18-20.55-17.45-29.51-27.6-1.09-1.24-1.39-1.85,0-3.23,7.88-7.88,6.91-20.22-2.03-26.9-1.02-.76-1.33-1.42-.81-2.51,.09-.2,.13-.43,.24-.61,3.53-5.77,4.16-12.38,5.46-18.8,2.11-10.39,6.59-19.68,13.29-27.9,.23-.28,.43-.58,.66-.89-.17-.08-.31-.21-.38-.18-5.86,3.02-11.99,3.73-18.55,2.97-9.97-1.16-19.97-2.01-29.66-4.87-1.39-.41-2.49-1.05-3.49-2.1-6.41-6.7-10.83-14.53-13.34-23.45-.18-.62-.3-1.26-.49-2.07,5.92,.29,11.64,1,17.36,1.69,19.12,2.3,37.72,6.92,56.03,12.77q3.47,1.11,2.27,4.45c.63,.46,1.1-.11,1.57-.31,13.61-5.79,27.59-10.26,42.35-11.92,11.11-1.25,21.92,.37,32.58,3.39,2.18,.62,4.3,1.44,6.48,2.08,1.29,.38,1.82,.83,1.05,2.26-1.02,1.91-1.24,3.98-.31,6.28,3.66-5.72,7.13-11.31,10.76-16.79,9.02-13.64,18.22-27.16,29.3-39.26,6.85-7.48,14.43-14.17,22.5-20.31,.45-.35,.84-.84,1.76-.88Zm-45.41,221.79c-2.77,17.23-10.27,32.42-20.15,46.56-1.03,1.47-1.6,2.79-1.08,4.61,.3,1.05,1.08,2.5-.06,3.27-1.16,.79-2.06-.63-3.06-1.14-.1-.05-.25,.02-.46,.04-.21,.5-.42,1.03-.66,1.56-.9,1.96-1.7,2.04-3.18,.4-.55-.61-.76-1.55-1.63-1.9-.38,.69-.7,1.35-1.1,1.96-1.34,2.05-2.42,2.04-3.76-.06-.59-.92-1.06-1.91-1.59-2.86-1.49,.99-1.91,3.88-4.45,2.6-1.92-.96-1.5-3.3-2.17-4.96-1.28,.17-2.38,1.63-3.55,.54-1.16-1.08-.3-2.46,.02-3.71,.75-2.84,1.28-5.69,1.55-8.63,1.41-15.2,3.59-30.26,8.92-44.68,.17-.46,.47-.92-.05-1.49-.22,.12-.51,.21-.69,.4-.46,.47-.91,.96-1.3,1.48-2.94,3.88-4.43,8.4-5.57,13.04-3.47,14.06-3.51,28.63-6.28,42.8-.5,2.54,.53,3.58,3.23,3.92,1.35,.17,2.17,.64,2.84,1.91,1.45,2.74,2.71,3.09,5.54,1.64,.98-.5,1.29-.25,1.86,.53,2.12,2.88,3.23,3.01,6.11,.76,.66-.52,1.07-.77,1.82-.13,1.62,1.39,3.18,1,4.34-.6,.76-1.04,1.48-1.08,2.61-.77,1.86,.5,2.97-.48,3.29-2.27,.17-.92,.31-1.99,0-2.83-.72-1.99,.23-3.25,1.39-4.67,11.24-13.75,18.2-29.13,17.84-47.27,.26-.68,.24-1.36,0-2.12-.55,.64-.7,1.31-.58,2.06Zm-23.31-104.97c.04-8.79-6.32-14.99-15.39-15.03-8.27-.03-14.17,6.22-14.24,15.11-.08,8.98,5.62,15.08,14.08,15.09,9.07,.01,15.51-6.27,15.55-15.17Zm-60.38,75.97c-.14,.76,.32,.98,.61,1.26,4.52,4.51,8.53,9.41,11.57,15.06,1.21,2.25,2.36,4.55,3.75,6.69,1.78,2.74,4.76,3.18,7.43,1.33,1.58-1.09,2.87-2.44,4.03-3.97,4.56-6.01,7.41-12.91,10.3-19.78,.34-.81,.07-1.57-.99-1.38-4.16,.75-8.37,1.05-12.58,1.39-4.82,.38-9.61,.44-14.42-.02-3.23-.31-6.49-.39-9.71-.57Zm-36.69-74.75c-.02,3.76,.83,6.82,2.88,9.47,1.75,2.26,4.04,3.69,6.96,3.54,4.96-.26,8.74-2.62,10.62-7.24,2.26-5.56,1.28-10.97-1.93-15.9-3-4.6-7.98-5.36-12.35-2-4.1,3.15-5.86,7.53-6.18,12.14Zm117.3,29.1c.01-9.25-6.56-15.67-16.09-15.74-9.01-.06-15.6,6.43-15.65,15.43-.06,9.27,6.67,15.82,16.26,15.84,9.04,.02,15.47-6.43,15.48-15.54Zm-72.62,6.49c4,.02,6.69-1.88,8.87-4.63,.75-.95,1.8-2.35,.72-3.27-1.04-.88-2.26,.21-3.11,1.2-2.55,3-5.73,3.83-9.5,2.86-1.78-.46-3.5-1.05-5.17-1.82-2.19-1.02-4.44-.93-6.63-.1-5.2,1.96-5.18,1.99-8.8-2.01-.39-.43-.75-1.02-1.44-.69-.62,.29-1.05,.82-.99,1.57,.14,1.78,.81,3.27,2.45,4.16,2.77,1.51,5.7,2.07,8.66,.78,2.77-1.2,5.35-1,8.06,.12,2.3,.94,4.63,1.88,6.89,1.83Zm-12.04-21.53c-1.22,.1-2.31,.16-3.4,.28-.56,.06-1.32-.07-1.58,.54-.58,1.35,.41,2.32,1.25,2.99,1.24,.98,1.85,3.47,4.02,2.46,1.62-.75,2.99-2.11,4.05-3.62,.84-1.21,.9-2.21-.97-2.36-1.16-.09-2.32-.21-3.37-.3Z"/><path class="cls-3" d="M270.17,269.71c4.23-4.37,8.41-8.78,12.72-13.07,1.39-1.39,1.26-1.91-.49-2.82-10.09-5.26-20.75-9.17-31.36-13.18-.81-.31-1.61-.63-2.45-.96,.25-1.06,1.07-1.63,1.68-2.32,7.41-8.42,14.81-16.85,22.3-25.19,1.31-1.46,1.33-1.96-.62-2.66-13.03-4.67-26.31-8.54-39.63-12.3-2.91-.82-2.85-.81-2.42-3.8,1.88-13.28,3.76-26.55,4.29-39.97,.15-3.67-.06-7.34-.64-10.96-.16-1.01,.07-1.64,.74-2.33,14.83-15.13,29.67-30.25,44.45-45.43,1.05-1.08,1.72-.57,2.6-.04,18.69,11.18,36.92,23.04,54.15,36.38,2.49,1.93,4.95,3.91,7.48,5.78,1.24,.91,1.51,1.38-.04,2.37-19.82,12.71-37.85,27.65-54.76,43.99-1.76,1.7-1.76,1.71,.47,2.62,15.05,6.16,29.84,12.9,44.19,20.55,.64,.34,1.28,.69,2.17,1.17-16.14,9.89-32.1,19.66-48.32,29.59,11.61,6.25,23.43,11.6,33.99,19.6-4.77,2.91-9.34,5.63-13.85,8.45-8.38,5.24-16.73,10.54-25.1,15.81-.89-.12-1.79-.24-2.84-.38,.68-1.5,1.25-2.78,2.1-4.67-2.31,1.07-4.03,1.86-6.02,2.78,.24-2.43,1.58-4.21,1.61-6.55-1.78,.69-3.33,1.32-4.91,1.87-.67,.24-1.46,.91-2.05,.49-.71-.5,.03-1.34,.1-2.03,.1-.94,.27-1.87,.42-2.8Z"/><path class="cls-1" d="M254.44,279.63c-.8-4.55-1.53-9.15-2.44-13.71-2.15-10.76-6.58-20.75-10.59-30.88-3.53-8.91-7.46-17.66-10.03-26.92-.74-2.66-1.23-5.38-1.18-8.37,12.55,4.16,24.89,8.24,37.55,12.44-3.26,3.7-6.37,7.23-9.48,10.76-4.07,4.61-8.12,9.25-12.25,13.81-.85,.93-.81,1.57-.33,2.66,1.27,2.85,3.26,4.43,6.28,5.46,7.26,2.49,14.36,5.42,21.53,8.18,1.71,.66,3.3,1.56,4.82,2.59,.8,.54,1.18,.93,.24,1.8-7.95,7.37-15.87,14.78-23.8,22.17-.04,.04-.14,0-.32,0Z"/><path class="cls-3" d="M242.52,372.78c-.16-2.98-.29-5.67-.44-8.36-.16-2.89-.95-5.62-2.3-8.18-.41-.78-.91-1.53-1.74-1.92-.55-.26-1.17-.32-1.68,.07-.64,.48-.5,1.17-.28,1.81,.56,1.61,1.52,3.01,2.45,4.41,2.14,3.2,2.49,6.82,2.58,10.51,.02,.65,0,1.49-.7,1.71-.85,.26-1.06-.67-1.3-1.2-1.27-2.72-2.46-5.47-3.67-8.22-1.12-2.56-2.41-5.02-4.34-7.08-.63-.67-1.43-1.26-2.31-.66-.81,.56-.39,1.47-.1,2.21,.81,2.07,2.1,3.85,3.38,5.63,2.05,2.86,3.89,5.84,5.47,9.01-1.11,.5-1.87-.08-2.56-.53-1.21-.81-2.45-1.65-3.47-2.67-7.25-7.23-13.52-15.21-18.33-24.29-.9-1.7-.48-2,1.24-2.18,7.69-.81,15.2-2.37,22.02-6.25,.81-.46,1.35-.71,1.81,.46,3.7,9.24,6.46,18.69,6.36,28.76-.01,1.46-.21,2.93-.45,4.37-.15,.89-.2,1.91-1.65,2.61Z"/><path class="cls-3" d="M90,358.59c-.31-1.29,.35-2.32,.95-3.26,4.36-6.88,8.95-13.58,15.39-18.77,.66-.53,1.13-1.25,2.21-.47,5.64,4.11,12.19,5.13,18.93,5.32,3.21,.09,6.42,.02,10.32,.02-13.01,10.07-26.41,17.9-42.62,21.36,.39-1.58,1.13-2.08,1.79-2.55,2.44-1.75,4.92-3.43,7.39-5.14,.48-.33,1.03-.59,1.46-.97,.85-.77,2.07-1.6,1.2-2.9-.85-1.26-2.05-.34-2.93,.14-3.63,1.99-6.56,4.89-9.57,7.68-.73,.68-1.29,1.6-2.45,1.92-.41-1.03,.31-1.68,.79-2.31,1.75-2.37,3.78-4.48,6.23-6.14,1.11-.75,2.19-1.74,1.14-3-1.03-1.24-2.15-.06-3.01,.65-2.32,1.93-4.35,4.13-5.78,6.84-.31,.59-.46,1.43-1.45,1.57Z"/><path class="cls-6" d="M270.17,269.71c-.14,.93-.31,1.86-.42,2.8-.08,.69-.81,1.53-.1,2.03,.59,.41,1.37-.26,2.05-.49,1.58-.55,3.12-1.18,4.91-1.87-.03,2.35-1.37,4.12-1.61,6.55,1.99-.92,3.71-1.71,6.02-2.78-.85,1.89-1.42,3.17-2.1,4.67,1.05,.14,1.95,.26,2.84,.38-8.7,5.88-17.4,11.75-26.58,17.95,0-3.65,.45-6.91-.1-9.99-.83-4.62,.98-7.38,4.57-9.99,3.76-2.74,7.04-6.14,10.53-9.25Z"/><path class="cls-4" d="M78.37,174.2c.05-3.33,.79-6.52,1.71-9.7,.44-1.52,1.01-1.43,2.11-.64,6.84,4.95,7.89,13.06,2.6,20.35-2.23,3.08-2.38,3.08-4.01-.29-1.48-3.06-2.49-6.26-2.42-9.72Z"/><path class="cls-6" d="M249.25,272.04c.86,3.58,1.6,6.67,2.35,9.75,.16,.67,.09,1.17-.7,1.29-3.38,.5-6.76,1.28-10.16,.29-1.43-.42-2.1-1.43-.71-2.5,3.27-2.53,6.38-5.21,9.22-8.83Z"/><path class="cls-6" d="M232.4,243.43c-1.08-.15-2.36,.4-2.92-.7-.59-1.15,.42-2.09,1.08-2.9,1.68-2.04,3.63-3.81,5.67-5.49,.72-.59,1.09-.47,1.45,.34,.89,2,1.81,4,2.76,5.97,.45,.94,.12,1.26-.82,1.49-2.42,.58-4.85,1.08-7.23,1.28Z"/><path class="cls-5" d="M191.12,140.56c-.04,8.9-6.48,15.18-15.55,15.17-8.47-.01-14.16-6.11-14.08-15.09,.08-8.88,5.97-15.14,14.24-15.11,9.07,.04,15.43,6.24,15.39,15.03Zm-24.84-4.12c-.03,4.16,2.59,7.13,6.34,7.2,3.77,.07,6.43-2.6,6.47-6.49,.04-4.06-2.84-7.19-6.66-7.22-3.63-.04-6.12,2.6-6.15,6.52Z"/><path class="cls-2" d="M130.74,216.52c3.22,.18,6.48,.26,9.71,.57,4.81,.47,9.6,.4,14.42,.02,4.21-.33,8.42-.64,12.58-1.39,1.06-.19,1.33,.57,.99,1.38-2.89,6.88-5.74,13.77-10.3,19.78-1.16,1.52-2.45,2.88-4.03,3.97-2.68,1.85-5.65,1.41-7.43-1.33-1.39-2.14-2.54-4.44-3.75-6.69-3.04-5.65-7.05-10.55-11.57-15.06-.29-.29-.75-.5-.61-1.26Z"/><path class="cls-5" d="M215.01,245.59c.35,18.13-6.61,33.52-17.84,47.27-1.16,1.41-2.11,2.67-1.39,4.67,.3,.84,.16,1.91,0,2.83-.32,1.79-1.44,2.77-3.29,2.27-1.13-.3-1.85-.27-2.61,.77-1.16,1.6-2.73,1.99-4.34,.6-.75-.65-1.15-.39-1.82,.13-2.88,2.25-3.99,2.12-6.11-.76-.57-.78-.88-1.03-1.86-.53-2.83,1.45-4.1,1.11-5.54-1.64-.67-1.27-1.49-1.74-2.84-1.91-2.7-.34-3.73-1.38-3.23-3.92,2.78-14.17,2.81-28.74,6.28-42.8,1.15-4.64,2.63-9.16,5.57-13.04,.4-.52,.84-1.01,1.3-1.48,.18-.19,.47-.27,.69-.4,.52,.57,.21,1.03,.05,1.49-5.33,14.42-7.51,29.48-8.92,44.68-.27,2.94-.81,5.79-1.55,8.63-.33,1.25-1.19,2.63-.02,3.71,1.17,1.09,2.27-.37,3.55-.54,.67,1.65,.25,3.99,2.17,4.96,2.54,1.27,2.97-1.62,4.45-2.6,.53,.96,1,1.95,1.59,2.86,1.34,2.09,2.41,2.1,3.76,.06,.4-.61,.72-1.27,1.1-1.96,.87,.35,1.08,1.29,1.63,1.9,1.48,1.64,2.28,1.56,3.18-.4,.24-.52,.45-1.06,.66-1.56,.21-.02,.36-.09,.46-.04,1,.51,1.9,1.93,3.06,1.14,1.14-.78,.37-2.23,.06-3.27-.52-1.81,.05-3.14,1.08-4.61,9.88-14.14,17.38-29.34,20.15-46.56,.19,.02,.39,.04,.58,.06Z"/><path class="cls-5" d="M94.05,141.77c.32-4.61,2.07-8.99,6.18-12.14,4.37-3.35,9.35-2.6,12.35,2,3.21,4.93,4.19,10.34,1.93,15.9-1.88,4.62-5.66,6.98-10.62,7.24-2.92,.15-5.21-1.27-6.96-3.54-2.05-2.65-2.9-5.7-2.88-9.47Zm17.76-3.95c-.04-3.23-2.06-5.92-4.41-5.86-2.37,.06-4.78,3.36-4.75,6.5,.03,2.68,2.14,5.03,4.51,5.04,2.5,0,4.68-2.66,4.64-5.68Z"/><path class="cls-5" d="M211.35,170.87c-.01,9.11-6.44,15.56-15.48,15.54-9.59-.02-16.32-6.58-16.26-15.84,.05-9,6.64-15.49,15.65-15.43,9.53,.06,16.11,6.49,16.09,15.74Zm-28.8-.22c-.06,7.38,5.22,12.66,12.75,12.75,7.36,.09,12.82-5.04,12.89-12.1,.07-7.33-5.31-12.68-12.79-12.73-7.47-.04-12.79,4.97-12.85,12.08Z"/><path class="cls-5" d="M138.73,177.36c-2.26,.04-4.6-.89-6.89-1.83-2.71-1.11-5.29-1.32-8.06-.12-2.96,1.28-5.89,.73-8.66-.78-1.64-.9-2.3-2.38-2.45-4.16-.06-.75,.37-1.28,.99-1.57,.69-.33,1.05,.26,1.44,.69,3.62,4,3.61,3.97,8.8,2.01,2.19-.83,4.44-.91,6.63,.1,1.67,.77,3.38,1.36,5.17,1.82,3.77,.97,6.95,.14,9.5-2.86,.84-.99,2.07-2.08,3.11-1.2,1.08,.92,.03,2.32-.72,3.27-2.18,2.76-4.86,4.66-8.87,4.63Z"/><path class="cls-5" d="M126.69,155.82c1.04,.09,2.21,.2,3.37,.3,1.87,.15,1.81,1.15,.97,2.36-1.06,1.52-2.43,2.88-4.05,3.62-2.17,1.01-2.78-1.48-4.02-2.46-.85-.67-1.83-1.64-1.25-2.99,.26-.61,1.02-.47,1.58-.54,1.09-.13,2.18-.19,3.4-.28Z"/><path class="cls-6" d="M215.01,245.59c-.19-.02-.39-.04-.58-.06-.12-.75,.03-1.42,.58-2.06,.23,.76,.26,1.44,0,2.12Z"/><path class="cls-1" d="M166.28,136.43c.02-3.91,2.51-6.55,6.15-6.52,3.82,.04,6.71,3.17,6.66,7.22-.04,3.89-2.7,6.56-6.47,6.49-3.75-.07-6.36-3.04-6.34-7.2Z"/><path class="cls-1" d="M111.81,137.81c.04,3.02-2.15,5.68-4.64,5.68-2.37,0-4.48-2.36-4.51-5.04-.03-3.14,2.38-6.44,4.75-6.5,2.35-.06,4.37,2.62,4.41,5.86Z"/><path class="cls-4" d="M182.55,170.65c.06-7.12,5.39-12.12,12.85-12.08,7.48,.04,12.86,5.4,12.79,12.73-.07,7.07-5.52,12.19-12.89,12.1-7.53-.09-12.82-5.37-12.75-12.75Z"/></svg>